<svg width="27" height="25" viewBox="0 0 27 25" fill="none" xmlns="http://www.w3.org/2000/svg">
<g clip-path="url(#clip0_2984_6855)">
<path d="M23.9748 4.39137L20.2689 4.35285C19.9664 2.46533 18.1891 0.0385208 16.563 0.0385208L10.7017 0C9.03781 0 7.2605 2.34977 6.92017 4.23729L3.21429 4.19877C1.55042 4.19877 0.189076 5.547 0.15126 7.24191L0 21.7257C0 23.4206 1.32353 24.8074 2.98739 24.8459L23.7857 25.0385C25.4496 25.0385 26.8109 23.6903 26.8487 21.9954L26.9622 7.55008C27 5.81664 25.6387 4.42989 23.9748 4.39137ZM13.4244 20.6086C10.0588 20.5701 7.33613 17.7581 7.37395 14.3297C7.41176 10.9014 10.1723 8.12789 13.5378 8.16641C16.9034 8.20493 19.626 11.0169 19.5882 14.4453C19.5504 17.8737 16.8277 20.6086 13.4244 20.6086Z" fill="#A6A6A6"/>
<path d="M13.5001 17.7582C15.338 17.7582 16.8278 16.2405 16.8278 14.3683C16.8278 12.4962 15.338 10.9785 13.5001 10.9785C11.6622 10.9785 10.1724 12.4962 10.1724 14.3683C10.1724 16.2405 11.6622 17.7582 13.5001 17.7582Z" fill="#A6A6A6"/>
</g>
<defs>
<clipPath id="clip0_2984_6855">
<rect width="27" height="25" fill="white"/>
</clipPath>
</defs>
</svg>
