<svg width="26" height="26" viewBox="0 0 26 26" fill="currentColor" xmlns="http://www.w3.org/2000/svg">
<path d="M16.4938 0C17.196 0 17.8402 0.34775 18.1536 0.89832L18.5714 1.625H24.1429C25.1701 1.625 26 2.3527 26 3.25C26 4.1473 25.1701 4.875 24.1429 4.875H1.85714C0.831652 4.875 0 4.1473 0 3.25C0 2.3527 0.831652 1.625 1.85714 1.625H7.42857L7.84643 0.89832C8.15982 0.34775 8.80402 0 9.50625 0H16.4938V0ZM1.80491 6.5H24.1429V22.75C24.1429 24.5426 22.4772 26 20.4286 26H5.5192C3.51987 26 1.80491 24.5426 1.80491 22.75V6.5V6.5ZM12.0134 10.1055L7.37054 14.168C6.8308 14.6453 6.8308 15.4172 7.37054 15.8488C7.91607 16.3668 8.79821 16.3668 9.29152 15.8488L11.5549 13.909V20.7188C11.5549 21.3941 12.2281 21.9375 12.9478 21.9375C13.7719 21.9375 14.3929 21.3941 14.3929 20.7188V13.909L16.6562 15.8488C17.2018 16.3668 18.0839 16.3668 18.5772 15.8488C19.1692 15.4172 19.1692 14.6453 18.5772 14.168L13.9344 10.1055C13.7254 9.87695 13.3714 9.7043 12.9478 9.7043C12.6286 9.7043 12.2746 9.87695 12.0134 10.1055V10.1055Z" fill="#F4F4F4"/>
</svg>
