<svg width="17" height="17" viewBox="0 0 17 17" fill="none" xmlns="http://www.w3.org/2000/svg">
<path fill-rule="evenodd" clip-rule="evenodd" d="M0.238581 14.9052L6.99592 8.1479L0.23858 1.39056C-0.0795268 1.07245 -0.0795268 0.556629 0.23858 0.238522C0.556687 -0.0795856 1.07239 -0.079468 1.3905 0.238639L8.14784 6.99598L8.31454 7.16267L8.48112 6.99608L15.2385 0.238743C15.5566 -0.0793641 16.0723 -0.0794815 16.3904 0.238626C16.7085 0.556733 16.7085 1.07256 16.3904 1.39066L9.63304 8.14801L16.3904 14.9053C16.7085 15.2235 16.7085 15.7393 16.3904 16.0574C16.0723 16.3755 15.5566 16.3754 15.2385 16.0573L8.48112 9.29993L8.31443 9.13323L8.14784 9.29982L1.3905 16.0572C1.0724 16.3753 0.556689 16.3754 0.238581 16.0573C-0.0795257 15.7392 -0.0795258 15.2233 0.238581 14.9052Z" fill="#A6A6A6"/>
</svg>
