<svg width="325" height="146" viewBox="0 0 325 146" fill="none" xmlns="http://www.w3.org/2000/svg">
<rect width="325" height="146" rx="8" fill="#F4F4F4"/>
<path d="M132.113 77.9517C130.206 77.9517 128.597 77.3308 127.375 76.089C126.124 74.8472 125.498 73.3393 125.498 71.5061C125.498 69.673 126.124 68.1651 127.375 66.9233C128.627 65.6815 130.206 65.0605 132.084 65.0605C133.395 65.0605 134.587 65.4153 135.689 66.125C136.792 66.8346 137.537 67.7807 137.984 68.9634H134.736C134.11 68.1651 133.216 67.7807 132.054 67.7807C130.921 67.7807 130.027 68.1355 129.312 68.8451C128.627 69.5547 128.269 70.4417 128.269 71.5061C128.269 72.5705 128.627 73.4575 129.312 74.1671C129.998 74.8767 130.921 75.2315 132.054 75.2315C133.901 75.2315 134.974 74.4332 135.302 72.8071H131.756V70.2052H138.282C138.431 71.4765 138.371 72.6297 138.103 73.6349C137.835 74.6402 137.418 75.4681 136.822 76.0594C136.226 76.6803 135.54 77.1534 134.736 77.449C133.961 77.7743 133.097 77.9517 132.113 77.9517Z" fill="#C1C1C1"/>
<path d="M147.519 76.592C146.625 77.479 145.523 77.9225 144.241 77.9225C142.96 77.9225 141.857 77.479 140.964 76.592C140.07 75.705 139.593 74.6406 139.593 73.3397C139.593 72.0683 140.04 70.9743 140.964 70.0873C141.857 69.2003 142.96 68.7568 144.241 68.7568C145.523 68.7568 146.625 69.2003 147.519 70.0873C148.413 70.9743 148.89 72.0683 148.89 73.3397C148.86 74.6406 148.413 75.7346 147.519 76.592ZM142.811 74.8772C143.169 75.2615 143.645 75.4685 144.212 75.4685C144.778 75.4685 145.254 75.2615 145.612 74.8772C145.97 74.4928 146.178 73.9902 146.178 73.3397C146.178 72.7188 145.999 72.1866 145.612 71.8022C145.254 71.4178 144.778 71.2109 144.212 71.2109C143.645 71.2109 143.169 71.4178 142.811 71.8022C142.453 72.1866 142.245 72.6892 142.245 73.3397C142.275 73.9902 142.453 74.4928 142.811 74.8772Z" fill="#C1C1C1"/>
<path d="M154.075 77.9225C152.943 77.9225 151.959 77.479 151.155 76.5625C150.35 75.6755 149.963 74.5815 149.963 73.3397C149.963 72.0979 150.35 71.0039 151.155 70.1169C151.959 69.2299 152.913 68.7568 154.075 68.7568C155.088 68.7568 155.893 69.1116 156.489 69.8212V68.9342H159.17V77.686H156.489V76.799C155.893 77.5677 155.088 77.9225 154.075 77.9225ZM153.24 74.9067C153.598 75.3207 154.105 75.5276 154.701 75.5276C155.297 75.5276 155.773 75.3207 156.161 74.9067C156.518 74.4928 156.727 73.9902 156.727 73.3397C156.727 72.7188 156.548 72.1866 156.161 71.7727C155.803 71.3587 155.297 71.1517 154.701 71.1517C154.105 71.1517 153.628 71.3587 153.24 71.7727C152.883 72.1866 152.674 72.6892 152.674 73.3397C152.674 73.9902 152.853 74.4928 153.24 74.9067Z" fill="#C1C1C1"/>
<path d="M161.346 77.7451V64.5879H164.028V77.7451H161.346Z" fill="#C1C1C1"/>
<path d="M172.163 77.7451L168.885 73.8423V77.7451H166.203V64.5879H168.885V72.0979L171.477 68.9638H174.636L171.388 72.9257L175.411 77.7156H172.163V77.7451Z" fill="#C1C1C1"/>
<path d="M179.732 77.9223C178.361 77.9223 177.229 77.4788 176.364 76.6213C175.5 75.7639 175.053 74.6699 175.053 73.3394C175.053 72.0385 175.5 70.9445 176.394 70.0871C177.288 69.2296 178.391 68.7861 179.732 68.7861C180.387 68.7861 180.983 68.9044 181.549 69.1114C182.116 69.3479 182.622 69.6436 183.069 70.0871C183.516 70.501 183.844 71.0628 184.112 71.7132C184.38 72.3637 184.47 73.1325 184.44 73.9603H177.646C177.705 74.4334 177.914 74.8473 178.271 75.1726C178.659 75.4978 179.165 75.6456 179.851 75.6456C180.238 75.6456 180.596 75.5569 180.924 75.4091C181.251 75.2613 181.46 75.0543 181.549 74.8178H184.35C184.082 75.7343 183.516 76.5031 182.652 77.0648C181.818 77.6562 180.834 77.9223 179.732 77.9223ZM179.642 70.8854C179.136 70.8854 178.718 71.0036 178.391 71.2697C178.063 71.5358 177.825 71.8611 177.705 72.275H181.49C181.371 71.8019 181.132 71.4471 180.775 71.2106C180.417 71.0036 180.059 70.8854 179.642 70.8854Z" fill="#C1C1C1"/>
<path d="M190.25 77.9223C188.88 77.9223 187.747 77.4788 186.883 76.6213C186.019 75.7639 185.572 74.6699 185.572 73.3394C185.572 72.0385 186.019 70.9445 186.913 70.0871C187.807 69.2296 188.909 68.7861 190.25 68.7861C190.906 68.7861 191.502 68.9044 192.068 69.1114C192.634 69.3479 193.141 69.6436 193.588 70.0871C194.035 70.501 194.363 71.0628 194.631 71.7132C194.869 72.3933 194.988 73.1325 194.959 73.9603H188.164C188.224 74.4334 188.433 74.8473 188.79 75.1726C189.178 75.4978 189.684 75.6456 190.37 75.6456C190.757 75.6456 191.115 75.5569 191.442 75.4091C191.77 75.2613 191.979 75.0543 192.068 74.8178H194.869C194.601 75.7343 194.035 76.5031 193.171 77.0648C192.336 77.6562 191.353 77.9223 190.25 77.9223ZM190.191 70.8854C189.684 70.8854 189.267 71.0036 188.939 71.2697C188.611 71.5358 188.373 71.8611 188.254 72.275H192.038C191.919 71.8019 191.681 71.4471 191.323 71.2106C190.966 71.0036 190.578 70.8854 190.191 70.8854Z" fill="#C1C1C1"/>
<path d="M199.309 81.4119H196.627V68.9938H199.309V69.8808C199.488 69.6147 199.816 69.3486 200.233 69.1416C200.68 68.9347 201.157 68.8164 201.693 68.8164C202.826 68.8164 203.809 69.2599 204.613 70.1765C205.418 71.0635 205.805 72.1575 205.805 73.3993C205.805 74.6411 205.418 75.735 204.613 76.6221C203.809 77.5091 202.855 77.9821 201.693 77.9821C201.157 77.9821 200.65 77.8639 200.233 77.6569C199.816 77.4499 199.488 77.1838 199.309 76.9177V81.4119ZM199.637 74.9072C199.995 75.3211 200.501 75.5281 201.097 75.5281C201.693 75.5281 202.17 75.3211 202.557 74.9072C202.915 74.4932 203.124 73.9906 203.124 73.3401C203.124 72.7192 202.945 72.187 202.557 71.7731C202.2 71.3592 201.693 71.1522 201.097 71.1522C200.501 71.1522 200.024 71.3592 199.637 71.7731C199.28 72.187 199.071 72.6897 199.071 73.3401C199.071 73.9906 199.28 74.4932 199.637 74.9072Z" fill="#C1C1C1"/>
<path d="M211.616 77.9223C210.245 77.9223 209.113 77.4788 208.249 76.6213C207.385 75.7639 206.938 74.6699 206.938 73.3394C206.938 72.0385 207.385 70.9445 208.279 70.0871C209.173 69.2296 210.275 68.7861 211.616 68.7861C212.272 68.7861 212.868 68.9044 213.434 69.1114C214 69.3479 214.507 69.6436 214.954 70.0871C215.401 70.501 215.728 71.0628 215.997 71.7132C216.235 72.3933 216.354 73.1325 216.324 73.9603H209.53C209.59 74.4334 209.798 74.8473 210.156 75.1726C210.543 75.4978 211.05 75.6456 211.735 75.6456C212.123 75.6456 212.48 75.5569 212.808 75.4091C213.136 75.2613 213.344 75.0543 213.434 74.8178H216.235C215.967 75.7343 215.401 76.5031 214.536 77.0648C213.702 77.6562 212.719 77.9223 211.616 77.9223ZM211.527 70.8854C211.02 70.8854 210.603 71.0036 210.275 71.2697C209.947 71.5358 209.709 71.8611 209.59 72.275H213.374C213.255 71.8019 213.017 71.4471 212.659 71.2106C212.301 71.0036 211.944 70.8854 211.527 70.8854Z" fill="#C1C1C1"/>
<path d="M217.993 77.7453V68.964H220.675V70.2649C220.824 69.8805 221.092 69.5257 221.479 69.2596C221.867 68.9935 222.314 68.8457 222.791 68.8457C223.089 68.8457 223.387 68.8753 223.655 68.964V71.6546C223.238 71.5067 222.85 71.4476 222.463 71.4476C221.897 71.4476 221.45 71.6546 221.152 72.0389C220.854 72.4233 220.675 72.9555 220.675 73.5764V77.7453H217.993Z" fill="#C1C1C1"/>
<path d="M114.502 81.2344H108.096C105.294 81.2344 103 78.9577 103 76.1784V69.8216C103 67.0423 105.294 64.7656 108.096 64.7656H114.502C117.303 64.7656 119.598 67.0423 119.598 69.8216V76.1784C119.598 78.9577 117.303 81.2344 114.502 81.2344Z" fill="#C1C1C1"/>
<path d="M107.738 70.7378C106.069 72.3936 106.069 75.0546 107.738 76.7103C109.407 78.3661 112.088 78.3661 113.757 76.7103L113.787 76.6808L107.768 70.6787C107.738 70.7083 107.738 70.7083 107.738 70.7378Z" fill="white"/>
<path d="M110.748 67.7219C109.079 69.3777 109.079 72.0387 110.748 73.6945C112.416 75.3502 115.098 75.3502 116.767 73.6945L116.797 73.6649L110.807 67.6924C110.777 67.6924 110.777 67.6924 110.748 67.7219Z" fill="#E6E6E6"/>
</svg>
