<svg width="670" height="282" viewBox="0 0 670 282" fill="none" xmlns="http://www.w3.org/2000/svg">
<rect width="670" height="282" rx="8" fill="#E8E8E8"/>
<path d="M304.568 145.883C302.689 145.883 301.103 145.271 299.9 144.046C298.666 142.822 298.05 141.335 298.05 139.528C298.05 137.72 298.666 136.233 299.9 135.009C301.133 133.785 302.689 133.172 304.538 133.172C305.83 133.172 307.005 133.522 308.091 134.222C309.177 134.922 309.911 135.854 310.352 137.021H307.152C306.535 136.233 305.654 135.854 304.509 135.854C303.393 135.854 302.513 136.204 301.808 136.904C301.133 137.604 300.78 138.478 300.78 139.528C300.78 140.577 301.133 141.452 301.808 142.152C302.483 142.851 303.393 143.201 304.509 143.201C306.329 143.201 307.386 142.414 307.709 140.81H304.215V138.245H310.645C310.792 139.499 310.734 140.636 310.469 141.627C310.205 142.618 309.794 143.434 309.207 144.017C308.62 144.63 307.944 145.096 307.152 145.388C306.388 145.708 305.537 145.883 304.568 145.883Z" fill="#C1C1C1"/>
<path d="M319.747 144.542C318.867 145.417 317.78 145.854 316.518 145.854C315.255 145.854 314.169 145.417 313.288 144.542C312.407 143.667 311.938 142.618 311.938 141.335C311.938 140.082 312.378 139.003 313.288 138.128C314.169 137.254 315.255 136.816 316.518 136.816C317.78 136.816 318.867 137.254 319.747 138.128C320.628 139.003 321.098 140.082 321.098 141.335C321.069 142.618 320.628 143.697 319.747 144.542ZM315.108 142.851C315.461 143.23 315.931 143.434 316.488 143.434C317.046 143.434 317.516 143.23 317.868 142.851C318.221 142.472 318.426 141.977 318.426 141.335C318.426 140.723 318.25 140.198 317.868 139.819C317.516 139.44 317.046 139.236 316.488 139.236C315.931 139.236 315.461 139.44 315.108 139.819C314.756 140.198 314.551 140.694 314.551 141.335C314.58 141.977 314.756 142.472 315.108 142.851Z" fill="#C1C1C1"/>
<path d="M326.206 145.854C325.09 145.854 324.121 145.417 323.329 144.513C322.536 143.638 322.154 142.56 322.154 141.335C322.154 140.111 322.536 139.032 323.329 138.158C324.121 137.283 325.061 136.816 326.206 136.816C327.204 136.816 327.997 137.166 328.584 137.866V136.991H331.227V145.621H328.584V144.746C327.997 145.504 327.204 145.854 326.206 145.854ZM325.384 142.88C325.736 143.289 326.235 143.493 326.823 143.493C327.41 143.493 327.88 143.289 328.261 142.88C328.614 142.472 328.819 141.977 328.819 141.335C328.819 140.723 328.643 140.198 328.261 139.79C327.909 139.382 327.41 139.178 326.823 139.178C326.235 139.178 325.766 139.382 325.384 139.79C325.032 140.198 324.826 140.694 324.826 141.335C324.826 141.977 325.002 142.472 325.384 142.88Z" fill="#C1C1C1"/>
<path d="M333.37 145.679V132.706H336.013V145.679H333.37Z" fill="#C1C1C1"/>
<path d="M344.028 145.679L340.799 141.831V145.679H338.156V132.706H340.799V140.111L343.353 137.021H346.465L343.265 140.927L347.229 145.65H344.028V145.679Z" fill="#C1C1C1"/>
<path d="M351.486 145.854C350.135 145.854 349.019 145.417 348.168 144.571C347.316 143.726 346.876 142.647 346.876 141.335C346.876 140.053 347.316 138.974 348.197 138.128C349.078 137.283 350.164 136.846 351.486 136.846C352.132 136.846 352.719 136.962 353.277 137.166C353.834 137.4 354.334 137.691 354.774 138.128C355.214 138.537 355.537 139.09 355.802 139.732C356.066 140.373 356.154 141.131 356.125 141.947H349.43C349.489 142.414 349.695 142.822 350.047 143.143C350.429 143.463 350.928 143.609 351.603 143.609C351.985 143.609 352.337 143.522 352.66 143.376C352.983 143.23 353.189 143.026 353.277 142.793H356.036C355.772 143.697 355.214 144.455 354.363 145.009C353.541 145.592 352.572 145.854 351.486 145.854ZM351.398 138.916C350.898 138.916 350.487 139.032 350.164 139.295C349.841 139.557 349.607 139.878 349.489 140.286H353.218C353.1 139.819 352.866 139.469 352.513 139.236C352.161 139.032 351.809 138.916 351.398 138.916Z" fill="#C1C1C1"/>
<path d="M361.85 145.854C360.499 145.854 359.384 145.417 358.532 144.571C357.681 143.726 357.24 142.647 357.24 141.335C357.24 140.053 357.681 138.974 358.561 138.128C359.442 137.283 360.529 136.846 361.85 136.846C362.496 136.846 363.083 136.962 363.641 137.166C364.199 137.4 364.698 137.691 365.138 138.128C365.579 138.537 365.902 139.09 366.166 139.732C366.401 140.402 366.518 141.131 366.489 141.947H359.795C359.853 142.414 360.059 142.822 360.411 143.143C360.793 143.463 361.292 143.609 361.967 143.609C362.349 143.609 362.701 143.522 363.024 143.376C363.347 143.23 363.553 143.026 363.641 142.793H366.401C366.136 143.697 365.579 144.455 364.727 145.009C363.905 145.592 362.936 145.854 361.85 145.854ZM361.791 138.916C361.292 138.916 360.881 139.032 360.558 139.295C360.235 139.557 360 139.878 359.883 140.286H363.611C363.494 139.819 363.259 139.469 362.907 139.236C362.554 139.032 362.173 138.916 361.791 138.916Z" fill="#C1C1C1"/>
<path d="M370.775 149.294H368.133V137.05H370.775V137.924C370.951 137.662 371.274 137.4 371.685 137.196C372.126 136.991 372.596 136.875 373.124 136.875C374.24 136.875 375.209 137.312 376.001 138.216C376.794 139.09 377.176 140.169 377.176 141.394C377.176 142.618 376.794 143.697 376.001 144.571C375.209 145.446 374.269 145.912 373.124 145.912C372.596 145.912 372.096 145.796 371.685 145.592C371.274 145.388 370.951 145.125 370.775 144.863V149.294ZM371.098 142.88C371.451 143.289 371.95 143.493 372.537 143.493C373.124 143.493 373.594 143.289 373.976 142.88C374.328 142.472 374.533 141.977 374.533 141.335C374.533 140.723 374.357 140.198 373.976 139.79C373.623 139.382 373.124 139.178 372.537 139.178C371.95 139.178 371.48 139.382 371.098 139.79C370.746 140.198 370.54 140.694 370.54 141.335C370.54 141.977 370.746 142.472 371.098 142.88Z" fill="#C1C1C1"/>
<path d="M382.902 145.854C381.551 145.854 380.435 145.417 379.584 144.571C378.732 143.726 378.292 142.647 378.292 141.335C378.292 140.053 378.732 138.974 379.613 138.128C380.494 137.283 381.58 136.846 382.902 136.846C383.548 136.846 384.135 136.962 384.693 137.166C385.25 137.4 385.75 137.691 386.19 138.128C386.63 138.537 386.953 139.09 387.218 139.732C387.452 140.402 387.57 141.131 387.541 141.947H380.846C380.905 142.414 381.111 142.822 381.463 143.143C381.845 143.463 382.344 143.609 383.019 143.609C383.401 143.609 383.753 143.522 384.076 143.376C384.399 143.23 384.604 143.026 384.693 142.793H387.452C387.188 143.697 386.63 144.455 385.779 145.009C384.957 145.592 383.988 145.854 382.902 145.854ZM382.813 138.916C382.314 138.916 381.903 139.032 381.58 139.295C381.257 139.557 381.023 139.878 380.905 140.286H384.634C384.516 139.819 384.282 139.469 383.929 139.236C383.577 139.032 383.225 138.916 382.813 138.916Z" fill="#C1C1C1"/>
<path d="M389.185 145.679V137.021H391.827V138.303C391.974 137.924 392.238 137.574 392.62 137.312C393.002 137.05 393.442 136.904 393.912 136.904C394.205 136.904 394.499 136.933 394.763 137.021V139.673C394.352 139.528 393.97 139.469 393.589 139.469C393.031 139.469 392.59 139.673 392.297 140.052C392.003 140.431 391.827 140.956 391.827 141.568V145.679H389.185Z" fill="#C1C1C1"/>
<path d="M287.216 149.119H280.903C278.144 149.119 275.883 146.874 275.883 144.134V137.866C275.883 135.126 278.144 132.881 280.903 132.881H287.216C289.976 132.881 292.237 135.126 292.237 137.866V144.134C292.237 146.874 289.976 149.119 287.216 149.119Z" fill="#C1C1C1"/>
<path d="M280.551 138.77C278.907 140.402 278.907 143.026 280.551 144.659C282.196 146.291 284.838 146.291 286.482 144.659L286.512 144.63L280.581 138.711C280.551 138.741 280.551 138.741 280.551 138.77Z" fill="white"/>
<path d="M283.516 135.796C281.872 137.429 281.872 140.053 283.516 141.685C285.161 143.318 287.803 143.318 289.447 141.685L289.477 141.656L283.575 135.767C283.546 135.767 283.546 135.767 283.516 135.796Z" fill="#E6E6E6"/>
</svg>
