<svg width="157" height="34" viewBox="0 0 157 34" fill="none" xmlns="http://www.w3.org/2000/svg">
<path d="M37.7751 23.4763C35.3006 23.4763 33.2127 22.6643 31.6275 21.0404C30.0036 19.4165 29.1917 17.4447 29.1917 15.0475C29.1917 12.6503 30.0036 10.6784 31.6275 9.0545C33.2514 7.4306 35.3006 6.61865 37.7365 6.61865C39.4377 6.61865 40.9843 7.08262 42.4149 8.01057C43.8454 8.93851 44.8121 10.1758 45.392 11.7223H41.1776C40.3657 10.6784 39.2057 10.1758 37.6978 10.1758C36.2286 10.1758 35.0686 10.6397 34.1407 11.5677C33.2514 12.4956 32.7874 13.6556 32.7874 15.0475C32.7874 16.4394 33.2514 17.5993 34.1407 18.5273C35.03 19.4552 36.2286 19.9192 37.6978 19.9192C40.095 19.9192 41.4869 18.8752 41.9122 16.7487H37.3112V13.3462H45.7787C45.972 15.0088 45.8947 16.5167 45.5467 17.8313C45.1987 19.1459 44.6574 20.2285 43.8841 21.0018C43.1108 21.8137 42.2215 22.4324 41.1776 22.819C40.1723 23.2443 39.0511 23.4763 37.7751 23.4763Z" fill="black"/>
<path d="M57.7647 21.6977C56.6047 22.8576 55.1742 23.4376 53.5116 23.4376C51.849 23.4376 50.4185 22.8576 49.2585 21.6977C48.0986 20.5378 47.48 19.1459 47.48 17.4446C47.48 15.7821 48.0599 14.3515 49.2585 13.1916C50.4185 12.0316 51.849 11.4517 53.5116 11.4517C55.1742 11.4517 56.6047 12.0316 57.7647 13.1916C58.9246 14.3515 59.5432 15.7821 59.5432 17.4446C59.5045 19.1459 58.9246 20.5764 57.7647 21.6977ZM51.6557 19.4552C52.1197 19.9578 52.7383 20.2285 53.4729 20.2285C54.2076 20.2285 54.8262 19.9578 55.2901 19.4552C55.7541 18.9525 56.0248 18.2952 56.0248 17.4446C56.0248 16.6327 55.7928 15.9367 55.2901 15.4341C54.8262 14.9314 54.2076 14.6608 53.4729 14.6608C52.7383 14.6608 52.1197 14.9314 51.6557 15.4341C51.1917 15.9367 50.9211 16.594 50.9211 17.4446C50.9598 18.2952 51.1917 18.9525 51.6557 19.4552Z" fill="black"/>
<path d="M66.2707 23.4376C64.8015 23.4376 63.5256 22.8576 62.4816 21.659C61.4377 20.4991 60.9351 19.0685 60.9351 17.4446C60.9351 15.8207 61.4377 14.3901 62.4816 13.2302C63.5256 12.0703 64.7628 11.4517 66.2707 11.4517C67.5853 11.4517 68.6293 11.9156 69.4025 12.8436V11.6836H72.8823V23.1283H69.4025V21.9683C68.6293 22.9736 67.5853 23.4376 66.2707 23.4376ZM65.1881 19.4938C65.6521 20.0351 66.3094 20.3058 67.0827 20.3058C67.856 20.3058 68.4746 20.0351 68.9772 19.4938C69.4412 18.9525 69.7119 18.2952 69.7119 17.4446C69.7119 16.6327 69.4799 15.9367 68.9772 15.3954C68.5133 14.8541 67.856 14.5835 67.0827 14.5835C66.3094 14.5835 65.6908 14.8541 65.1881 15.3954C64.7242 15.9367 64.4535 16.594 64.4535 17.4446C64.4535 18.2952 64.6855 18.9525 65.1881 19.4938Z" fill="black"/>
<path d="M75.7048 23.2056V6H79.1846V23.2056H75.7048Z" fill="black"/>
<path d="M89.74 23.2056L85.4869 18.1019V23.2056H82.0071V6H85.4869V15.8207L88.8507 11.7223H92.9492L88.7347 16.9033L93.9544 23.167H89.74V23.2056Z" fill="black"/>
<path d="M99.5606 23.4375C97.782 23.4375 96.3127 22.8575 95.1915 21.7363C94.0702 20.615 93.4902 19.1844 93.4902 17.4445C93.4902 15.7433 94.0702 14.3127 95.2301 13.1915C96.3901 12.0702 97.8207 11.4902 99.5606 11.4902C100.411 11.4902 101.184 11.6449 101.919 11.9155C102.654 12.2249 103.311 12.6115 103.891 13.1915C104.471 13.7328 104.896 14.4674 105.244 15.318C105.592 16.1686 105.708 17.1739 105.67 18.2565H96.8541C96.9314 18.8751 97.202 19.4164 97.666 19.8417C98.1687 20.267 98.8259 20.4604 99.7152 20.4604C100.218 20.4604 100.682 20.3444 101.107 20.151C101.532 19.9577 101.803 19.6871 101.919 19.3778H105.554C105.206 20.5763 104.471 21.5816 103.35 22.3162C102.267 23.0895 100.991 23.4375 99.5606 23.4375ZM99.4446 14.2354C98.7873 14.2354 98.246 14.3901 97.8207 14.738C97.3954 15.086 97.086 15.5113 96.9314 16.0526H101.842C101.687 15.434 101.378 14.97 100.914 14.6607C100.45 14.3901 99.9859 14.2354 99.4446 14.2354Z" fill="black"/>
<path d="M113.209 23.4375C111.431 23.4375 109.961 22.8575 108.84 21.7363C107.719 20.615 107.139 19.1844 107.139 17.4445C107.139 15.7433 107.719 14.3127 108.879 13.1915C110.039 12.0702 111.469 11.4902 113.209 11.4902C114.06 11.4902 114.833 11.6449 115.568 11.9155C116.302 12.2249 116.96 12.6115 117.54 13.1915C118.12 13.7328 118.545 14.4674 118.893 15.318C119.202 16.2073 119.357 17.1739 119.318 18.2565H110.503C110.58 18.8751 110.851 19.4164 111.315 19.8417C111.817 20.267 112.475 20.4604 113.364 20.4604C113.867 20.4604 114.33 20.3444 114.756 20.151C115.181 19.9577 115.452 19.6871 115.568 19.3778H119.202C118.854 20.5763 118.12 21.5816 116.998 22.3162C115.916 23.0895 114.64 23.4375 113.209 23.4375ZM113.132 14.2354C112.475 14.2354 111.933 14.3901 111.508 14.738C111.083 15.086 110.773 15.5113 110.619 16.0526H115.529C115.374 15.434 115.065 14.97 114.601 14.6607C114.137 14.3901 113.635 14.2354 113.132 14.2354Z" fill="black"/>
<path d="M124.963 27.9998H121.483V11.7608H124.963V12.9207C125.195 12.5727 125.62 12.2248 126.162 11.9541C126.742 11.6835 127.36 11.5288 128.056 11.5288C129.526 11.5288 130.801 12.1088 131.845 13.3074C132.889 14.4673 133.392 15.8979 133.392 17.5218C133.392 19.1457 132.889 20.5763 131.845 21.7362C130.801 22.8961 129.564 23.5148 128.056 23.5148C127.36 23.5148 126.703 23.3601 126.162 23.0894C125.62 22.8188 125.195 22.4708 124.963 22.1228V27.9998ZM125.388 19.4937C125.852 20.035 126.51 20.3056 127.283 20.3056C128.056 20.3056 128.675 20.035 129.178 19.4937C129.642 18.9524 129.912 18.2951 129.912 17.4445C129.912 16.6325 129.68 15.9365 129.178 15.3952C128.714 14.8539 128.056 14.5833 127.283 14.5833C126.51 14.5833 125.891 14.8539 125.388 15.3952C124.925 15.9365 124.654 16.5938 124.654 17.4445C124.654 18.2951 124.925 18.9524 125.388 19.4937Z" fill="black"/>
<path d="M140.932 23.4375C139.153 23.4375 137.684 22.8575 136.563 21.7363C135.441 20.615 134.861 19.1844 134.861 17.4445C134.861 15.7433 135.441 14.3127 136.601 13.1915C137.761 12.0702 139.192 11.4902 140.932 11.4902C141.782 11.4902 142.556 11.6449 143.29 11.9155C144.025 12.2249 144.682 12.6115 145.262 13.1915C145.842 13.7328 146.267 14.4674 146.615 15.318C146.925 16.2073 147.079 17.1739 147.041 18.2565H138.225C138.302 18.8751 138.573 19.4164 139.037 19.8417C139.54 20.267 140.197 20.4604 141.086 20.4604C141.589 20.4604 142.053 20.3444 142.478 20.151C142.904 19.9577 143.174 19.6871 143.29 19.3778H146.925C146.577 20.5763 145.842 21.5816 144.721 22.3162C143.638 23.0895 142.362 23.4375 140.932 23.4375ZM140.816 14.2354C140.158 14.2354 139.617 14.3901 139.192 14.738C138.766 15.086 138.457 15.5113 138.302 16.0526H143.213C143.058 15.434 142.749 14.97 142.285 14.6607C141.821 14.3901 141.357 14.2354 140.816 14.2354Z" fill="black"/>
<path d="M149.206 23.2058V11.7225H152.686V13.4238C152.879 12.9211 153.227 12.4572 153.73 12.1092C154.232 11.7612 154.812 11.5679 155.431 11.5679C155.818 11.5679 156.204 11.6065 156.552 11.7225V15.241C156.011 15.0477 155.508 14.9703 155.006 14.9703C154.271 14.9703 153.691 15.241 153.304 15.7436C152.918 16.2463 152.686 16.9422 152.686 17.7542V23.2058H149.206Z" fill="black"/>
<path d="M14.9244 27.768H6.61159C2.97715 27.768 0 24.7908 0 21.1564V12.8435C0 9.20909 2.97715 6.23193 6.61159 6.23193H14.9244C18.5589 6.23193 21.536 9.20909 21.536 12.8435V21.1564C21.536 24.7908 18.5589 27.768 14.9244 27.768Z" fill="#231815"/>
<path d="M6.14758 14.0422C3.98238 16.2074 3.98238 19.6872 6.14758 21.8524C8.31279 24.0176 11.7926 24.0176 13.9578 21.8524L13.9964 21.8137L6.18625 13.9648C6.14758 14.0035 6.14758 14.0035 6.14758 14.0422Z" fill="white"/>
<path d="M10.0526 10.0982C7.88741 12.2634 7.88741 15.7432 10.0526 17.9084C12.2178 20.0736 15.6976 20.0736 17.8628 17.9084L17.9015 17.8698L10.1299 10.0596C10.0913 10.0596 10.0913 10.0596 10.0526 10.0982Z" fill="#FF8A00"/>
</svg>
